<svg xmlns="http://www.w3.org/2000/svg" viewBox="0 0 640 320" fill="none">
  <defs>
    <linearGradient id="fg" x1="0" y1="0" x2="1" y2="1">
      <stop offset="0" stop-color="#22c55e"/>
      <stop offset="1" stop-color="#14b8a6"/>
    </linearGradient>
  </defs>
  <g class="body" fill="url(#fg)" opacity="0.95">
    <path d="M90 220c30-20 40-44 54-72 10-22 26-44 46-54 22-12 54-14 78-4 20 8 34 24 46 36 14 14 24 22 40 26 10 2 24 4 32 0 8-4 12-10 14-16 2-6 2-12-2-16-4-6-12-10-18-12 4-2 18-2 26 6 8 6 12 18 10 30-4 16-18 30-34 36-16 6-32 6-50 4-28-4-50-14-78-8-22 4-42 20-64 34-30 18-68 22-100 10-8-2-18-6-20-12-2-6 2-12 10-16 8-4 18-6 30-2z"/>
    <circle cx="436" cy="128" r="4" fill="#f1f5f9"/>
  </g>
</svg>
